<svg width="193" height="38" viewBox="0 0 193 38" fill="none" xmlns="http://www.w3.org/2000/svg">
<path fill-rule="evenodd" clip-rule="evenodd" d="M53.4628 11.4464V18.2754H62.9167V22.1406H53.4628V31.27H49.2839V7.57763H65.4586V11.4464H53.4628ZM128.863 14.7888V17.6372C129.52 16.6534 130.412 15.8491 131.459 15.2969C132.505 14.7448 133.673 14.4623 134.856 14.4751V18.2754C132.278 18.3656 130.28 18.7802 128.863 20.5217V31.27H124.821V14.7888H128.863ZM190.237 16.9522C191.803 18.5967 192.677 20.7804 192.677 23.051C192.677 25.3217 191.803 27.5054 190.237 29.1499C187.018 32.4598 182.583 32.3553 179.871 28.8615V37.5149H175.829V14.7996H179.871V17.4642C182.471 13.2997 187.083 13.6567 190.237 16.9594V16.9522ZM187.277 26.6873C188.173 25.6937 188.669 24.4033 188.669 23.0655C188.669 21.7276 188.173 20.4372 187.277 19.4436C185.038 17.0387 181.119 17.3848 179.871 20.208V25.8688C181.451 28.6559 185.053 29.0598 187.277 26.6693V26.6873ZM171.91 14.7888V31.27H167.915V28.1115C167.288 30.4551 164.721 31.7928 162.792 31.7928C158.122 31.7928 156.085 28.3278 156.085 23.8821V14.7888H160.091V23.6406C160.091 26.2222 160.892 28.1331 163.628 28.1331C165.207 28.1331 166.639 27.0514 167.915 25.4433V14.7888H171.91ZM153.457 23.0456C153.487 24.2083 153.279 25.3648 152.845 26.4439C152.41 27.5229 151.76 28.5015 150.933 29.3194C149.238 30.9083 147.002 31.7925 144.679 31.7925C142.356 31.7925 140.12 30.9083 138.425 29.3194C137.598 28.5015 136.948 27.5229 136.513 26.4439C136.079 25.3648 135.871 24.2083 135.901 23.0456C135.874 21.8994 136.084 20.76 136.519 19.699C136.953 18.638 137.602 17.6782 138.425 16.8801C139.252 16.0693 140.232 15.4326 141.309 15.0078C142.386 14.5829 143.538 14.3785 144.695 14.4066C145.849 14.372 146.997 14.5736 148.07 14.999C149.142 15.4243 150.117 16.0644 150.933 16.8801C151.756 17.6782 152.405 18.638 152.839 19.699C153.274 20.76 153.484 21.8994 153.457 23.0456ZM149.447 23.0456C149.447 20.2837 147.551 17.8139 144.71 17.8139C141.868 17.8139 139.936 20.2549 139.936 23.0456C139.936 25.8364 141.803 28.3855 144.71 28.3855C147.616 28.3855 149.447 25.84 149.447 23.0456ZM120.841 31.27H116.975V26.4565C115.995 30.109 112.263 31.7423 109.317 31.7928C107.675 31.8171 106.044 31.5158 104.52 30.9062C102.995 30.2966 101.606 29.3909 100.433 28.2413C98.2402 26.0395 96.9524 23.0958 96.8235 19.9911C96.6947 16.8864 97.7343 13.8462 99.7371 11.4704C101.74 9.09451 104.56 7.55564 107.642 7.1574C110.724 6.75916 113.843 7.53047 116.384 9.31913C117.776 10.2838 118.903 11.5832 119.662 13.0978L115.955 15.2611C115.47 14.0155 114.593 12.9613 113.456 12.2577C111.899 11.3216 110.075 10.9315 108.271 11.1489C106.467 11.3664 104.788 12.179 103.498 13.4584C100.397 16.5592 100.346 22.1839 103.393 25.3568C106 28.0826 110.662 28.555 113.629 26.1933C114.683 25.2997 115.505 24.1639 116.023 22.8834L108.993 23.1358V19.2706H120.837V31.27H120.841ZM68.6532 7.57763H75.9401C81.3485 7.57763 85.9781 8.96217 88.538 14.1326C90.0163 17.1072 90.0488 21.1238 88.7364 24.167C86.4576 29.4852 81.7992 31.27 76.3043 31.27H68.6532V7.57763ZM72.8321 27.4084H76.4052C80.2308 27.4084 83.1152 26.2618 84.7377 22.5841C85.1821 21.538 85.4041 20.411 85.3898 19.2745C85.3756 18.138 85.1253 17.0169 84.6548 15.9823C82.8917 12.3154 79.8846 11.4609 76.0915 11.4609H72.8177L72.8321 27.4084Z" fill="white"/>
<path fill-rule="evenodd" clip-rule="evenodd" d="M0.644531 18.0195H7.7115V7.90583H17.8252V0.838867H0.644531V18.0195Z" fill="#00BCCD"/>
<path fill-rule="evenodd" clip-rule="evenodd" d="M0.644531 37.9656H7.7115V27.8519H17.8252V20.7849H0.644531V37.9656Z" fill="white"/>
<path fill-rule="evenodd" clip-rule="evenodd" d="M37.7715 18.0195H30.7045V7.90583H20.5908V0.838867H37.7715V18.0195Z" fill="#00BCCD"/>
<path fill-rule="evenodd" clip-rule="evenodd" d="M37.7715 20.7849H30.7045V30.8986H20.5908V37.9656H37.7715V20.7849Z" fill="#00BCCD"/>
</svg>
