<svg width="76" height="71" viewBox="0 0 76 71" fill="none" xmlns="http://www.w3.org/2000/svg">
<circle cx="30.4141" cy="41.4368" r="29.5" fill="#F2F5F7"/>
<path d="M62.4503 12.1281C62.2089 6.84473 57.8349 2.62137 52.4928 2.62137C50.6763 2.62137 48.9307 3.10761 47.3878 4.0358C45.29 1.71755 42.3603 0.406128 39.2014 0.406128C33.0939 0.406128 28.1252 5.37492 28.1252 11.4823C28.1252 12.3828 28.2337 13.2734 28.4486 14.1428C26.827 15.7965 25.9099 18.0184 25.9099 20.3433C25.9099 23.026 27.0906 25.4926 29.1242 27.1651C28.4796 28.0845 28.1252 29.181 28.1252 30.3119C28.1252 33.1474 30.2662 35.4911 33.0164 35.8123C33.8748 37.8271 35.8575 39.1729 38.0937 39.1729C39.6965 39.1729 41.194 38.4751 42.2329 37.3043L42.4899 36.0206L42.4932 36.0106C38.5999 34.2949 35.8785 30.4094 35.8785 25.8814V21.2637C35.8785 19.3188 36.8997 17.5155 38.5678 16.5154L40.4707 15.3734C40.9459 16.9662 42.4234 18.1281 44.1713 18.1281H46.9536L46.9547 18.1425C48.8078 16.7491 51.1039 15.9128 53.6004 15.9128C59.7178 15.9128 64.6766 20.8716 64.6766 26.989C64.6766 26.9935 64.6755 26.9979 64.6755 27.0034L65.2504 26.7509L65.3966 26.6047C67.0758 24.9322 67.9995 22.7081 67.9995 20.3433C67.9995 16.7302 65.7566 13.465 62.4503 12.1281Z" fill="#00BCCD"/>
<path d="M53.6005 30.312C55.4325 30.312 56.9233 28.8211 56.9233 26.9891C56.9233 25.1571 55.4325 23.6663 53.6005 23.6663C51.7684 23.6663 50.2776 25.1571 50.2776 26.9891C50.2776 28.8211 51.7684 30.312 53.6005 30.312ZM53.6005 25.8815C54.2107 25.8815 54.7081 26.3777 54.7081 26.9891C54.7081 27.6005 54.2107 28.0967 53.6005 28.0967C52.9902 28.0967 52.4928 27.6005 52.4928 26.9891C52.4928 26.3777 52.9902 25.8815 53.6005 25.8815Z" fill="#444444"/>
<path d="M75.3585 60.0295L71.8806 50.2924C70.6688 46.8987 68.2254 44.1396 64.9989 42.5258C63.5247 41.7892 61.9474 41.324 60.3126 41.1423L56.9233 40.7658V38.7012C62.0294 37.2502 65.7842 32.555 65.7842 26.9892C65.7842 20.2714 60.3181 14.8053 53.6004 14.8053C51.0019 14.8053 48.5973 15.6294 46.6168 17.0206H44.1712C42.6527 17.0206 41.4166 15.7845 41.4166 14.2659C41.4166 13.0786 42.1742 12.0285 43.2995 11.6542L43.9818 11.4271L43.2818 9.32483L42.5995 9.553C40.567 10.2286 39.2013 12.1227 39.2013 14.2659C39.2013 14.452 39.2368 14.6292 39.2567 14.8109L37.9984 15.5663C36.0069 16.7592 34.7708 18.9423 34.7708 21.2639V25.8815C34.7708 30.5347 37.3948 34.583 41.2382 36.6343L40.4751 40.4468L33.6654 41.808C31.1268 42.3153 28.8362 43.7098 27.218 45.7312C25.6607 47.6806 24.8022 50.1263 24.8022 52.6217V69.0788H62.4614V64.8133L63.1802 65.9431C64.4307 67.9058 66.5673 69.0788 68.9808 69.0788C72.7146 69.0788 75.7528 66.0406 75.7528 62.3068C75.7528 61.5281 75.6199 60.7605 75.3585 60.0295ZM57.3464 54.6797H51.3851C50.7748 54.6797 50.2775 54.1835 50.2775 53.5721V49.1416C50.2775 48.5302 50.7748 48.034 51.3851 48.034H58.1516C58.4651 48.034 58.7652 48.1669 58.9746 48.4006L59.9459 49.4794L57.3464 54.6797ZM50.2775 46.0225C49.8134 46.1887 49.3914 46.4434 49.0481 46.7835L48.3536 45.163L50.2775 44.0089V46.0225ZM48.0623 50.1063V53.5721C48.0623 53.8113 48.09 54.045 48.1387 54.2699L46.9547 57.8231L45.023 52.0292L46.9547 47.5222L48.0623 50.1063ZM43.9696 48.8658L42.0302 43.0475L45.5568 45.163L43.9696 48.8658ZM42.4644 51.3568H38.8923L36.2883 43.5437L39.6366 42.8736L42.4644 51.3568ZM42.2816 53.5721H43.2032L44.8834 58.6129L41.5727 56.4054L42.2816 53.5721ZM49.7492 56.4463C49.9175 56.5427 50.0926 56.6247 50.2775 56.6911V57.7788L49.027 58.6129L49.7492 56.4463ZM52.4928 56.8949H54.708V58.0025C54.708 58.614 54.2107 59.1102 53.6004 59.1102C52.9901 59.1102 52.4928 58.614 52.4928 58.0025V56.8949ZM54.708 45.8187H52.4928V39.1165C52.8583 39.1497 53.226 39.173 53.6004 39.173C53.9748 39.173 54.3425 39.1497 54.708 39.1165V45.8187ZM53.6004 36.9578C49.6683 36.9578 46.2702 34.6639 44.6497 31.3488C46.8727 33.3148 49.6982 34.49 52.711 34.6882C53.0034 34.7215 53.2991 34.7425 53.6004 34.7425C53.9017 34.7425 54.1974 34.7215 54.4898 34.6871C57.5036 34.4889 60.3292 33.3148 62.5511 31.3477C60.9306 34.6639 57.5324 36.9578 53.6004 36.9578ZM63.3452 26.9892L63.0107 27.4909C62.3827 28.4335 61.6151 29.2465 60.7645 29.9454C61.1422 29.0338 61.3537 28.0359 61.3537 26.9892C61.3537 25.9425 61.1422 24.9445 60.7645 24.0329C61.6151 24.7318 62.3816 25.5448 63.0107 26.4874L63.3452 26.9892ZM59.1385 26.9892C59.1385 30.0429 56.6541 32.5273 53.6004 32.5273C50.5467 32.5273 48.0623 30.0429 48.0623 26.9892C48.0623 23.9355 50.5467 21.4511 53.6004 21.4511C56.6541 21.4511 59.1385 23.9355 59.1385 26.9892ZM46.4363 29.9454C45.5856 29.2465 44.8192 28.4335 44.19 27.4909L43.8555 26.9892L44.19 26.4874C44.8181 25.5448 45.5856 24.7318 46.4363 24.0329C46.0586 24.9445 45.847 25.9425 45.847 26.9892C45.847 28.0359 46.0586 29.0338 46.4363 29.9454ZM62.5511 22.6296C60.3281 20.6635 57.5036 19.4884 54.4898 19.2901C54.1974 19.2569 53.9017 19.2358 53.6004 19.2358C53.2991 19.2358 53.0034 19.2569 52.711 19.2912C49.6971 19.4895 46.8716 20.6635 44.6497 22.6307C46.2713 19.3145 49.6683 17.0206 53.6004 17.0206C57.5324 17.0206 60.9295 19.3145 62.5511 22.6296ZM36.9861 25.8815V21.2639C36.9861 19.7165 37.8101 18.2611 39.1371 17.4647L39.9988 16.9475C40.8849 18.3198 42.4201 19.2358 44.1712 19.2358H44.21C42.4655 21.3436 41.4166 24.0462 41.4166 26.9892C41.4166 30.3818 42.8133 33.4532 45.0595 35.6641C40.4673 34.7757 36.9861 30.7296 36.9861 25.8815ZM46.9547 38.0654C47.4176 38.0654 47.8851 38.0189 48.3492 37.9668C48.9661 38.2625 49.6085 38.5106 50.2775 38.7012V41.4259L46.9547 43.4196L42.656 40.84L43.3217 37.5116C44.4692 37.8704 45.6898 38.0654 46.9547 38.0654ZM27.0175 52.6217C27.0175 50.628 27.7031 48.6731 28.9481 47.1169C30.2407 45.5019 32.0693 44.3877 34.0985 43.9812L37.2951 53.5721H39.9977L39.0451 57.3834L45.847 61.918V66.8635H33.6632V55.7873H31.448V66.8635H27.0175V52.6217ZM60.2461 66.8635H48.0623V61.918L50.9543 59.9896C51.5613 60.796 52.516 61.3254 53.6004 61.3254C55.4324 61.3254 56.9233 59.8346 56.9233 58.0025V56.8949H57.4228L60.2461 61.3321V66.8635ZM68.8944 66.8635C67.3282 66.8635 65.8905 66.0749 65.0499 64.7535L59.3024 55.722L61.5387 51.2483L68.2841 58.7424L69.93 57.2604L60.6227 46.9186C59.9936 46.2197 59.0931 45.8187 58.1516 45.8187H56.9233V42.9954L60.0689 43.3454C61.4435 43.4983 62.7693 43.8892 64.0098 44.5084C66.7213 45.8652 68.7759 48.1835 69.7949 51.0378L73.2728 60.776C73.4478 61.2667 73.5376 61.7817 73.5376 62.3068C73.5376 64.8188 71.4929 66.8635 68.8944 66.8635Z" fill="#444444"/>
</svg>
