<svg width="81" height="73" viewBox="0 0 81 73" fill="none" xmlns="http://www.w3.org/2000/svg">
<circle cx="30.082" cy="43.4375" r="29.5" fill="#F2F5F7"/>
<path d="M74.2527 25.0463C63.251 25.0463 57.5921 20.7208 57.4825 20.6344L57.164 20.3801H56.7545V41.3779L52.8851 52.0168C52.4068 53.3338 51.1563 54.2099 49.7553 54.2099C48.3542 54.2099 47.1037 53.3338 46.6254 52.0168L42.756 41.3779V20.3801L42.3477 20.3825L42.0304 20.6333C41.9744 20.6776 36.3144 25.0463 25.2579 25.0463H24.0913V28.9892C24.0913 59.366 49.1335 68.0638 49.3866 68.1478L49.7553 68.2714L50.1239 68.1489C50.377 68.0638 75.4192 59.366 75.4192 28.9892V25.0463H74.2527Z" fill="#00BCCD"/>
<path d="M74.2528 20.3801C64.8412 20.3801 59.4949 16.527 57.9212 15.1878V8.71463C57.9212 4.21178 54.2583 0.548828 49.7554 0.548828C45.2526 0.548828 41.5896 4.21178 41.5896 8.71463V15.1878C40.016 16.527 34.6697 20.3801 25.258 20.3801H19.4253V28.7372C19.4253 55.703 38.0585 69.0389 47.91 72.3216L49.7554 72.9375L51.6009 72.3228C61.4524 69.0389 80.0856 55.703 80.0856 28.7372V20.3801H74.2528ZM54.2408 44.8775H45.2701L44.422 42.5444H55.09L54.2408 44.8775ZM53.3927 47.2106L51.7899 51.6178C51.4796 52.4705 50.6618 53.0433 49.7554 53.0433C48.849 53.0433 48.0313 52.4705 47.721 51.6178L46.1181 47.2106H53.3927ZM50.922 40.2113V16.8804H55.5881V40.2113H50.922ZM43.9227 40.2113V16.8804H48.5889V40.2113H43.9227ZM55.5881 14.5474H43.9227V12.2143H55.5881V14.5474ZM49.7554 2.88192C52.9716 2.88192 55.5881 5.49847 55.5881 8.71463V9.88118H43.9227V8.71463C43.9227 5.49847 46.5393 2.88192 49.7554 2.88192ZM77.7525 28.7372C77.7525 54.3731 60.1633 67.0092 50.8625 70.1098L49.7554 70.4784L48.6484 70.1098C39.3475 67.0092 21.7584 54.3731 21.7584 28.7372V22.7132H25.258C33.4238 22.7132 38.8412 19.9683 41.5896 18.0983V41.582L45.5279 52.4145C46.173 54.1865 47.8715 55.3764 49.7554 55.3764C51.6394 55.3764 53.3379 54.1865 53.983 52.4157L57.9212 41.5832V18.1006C60.6626 19.9648 66.0824 22.7132 74.2528 22.7132H77.7525V28.7372Z" fill="#444444"/>
</svg>
