<svg width="91" height="71" viewBox="0 0 91 71" fill="none" xmlns="http://www.w3.org/2000/svg">
<circle cx="30.4141" cy="38.7605" r="29.5" fill="#F2F5F7"/>
<path d="M64.8995 19.9289C62.0782 18.1296 58.7376 17.0736 55.1434 17.0736C50.6149 17.0736 46.483 18.7388 43.2992 21.4771C42.7252 22.1932 42.075 22.8434 41.3589 23.4174C38.6218 26.6001 36.9565 30.7319 36.9565 35.2604C36.9565 38.8546 38.0125 42.1953 39.8119 45.0165C43.0594 46.1112 45.7021 48.5005 47.1389 51.5729C49.5577 52.7619 52.2676 53.4473 55.1434 53.4473C65.1882 53.4473 73.3302 45.3053 73.3302 35.2604C73.3302 32.3847 72.6448 29.6748 71.4558 27.256C68.3823 25.8192 65.9941 23.1764 64.8995 19.9289Z" fill="#00BCCD"/>
<path d="M75.9366 37.8667L77.5438 39.474L78.8124 38.2055C77.354 49.9803 67.3058 59.1306 55.1433 59.1306C54.0794 59.1306 53.0075 59.0589 51.9561 58.9191L51.656 61.172C52.8063 61.3266 53.9805 61.4039 55.1433 61.4039C68.6777 61.4039 79.8411 51.067 81.1562 37.8736L82.7566 39.474L84.3639 37.8667L80.1502 33.6531L75.9366 37.8667Z" fill="#444444"/>
<path d="M54.5146 12.6462L52.6891 11.7334C53.5121 11.5402 54.3384 11.3902 55.1432 11.3902C57.3381 11.3902 59.5092 11.6868 61.5984 12.2722L62.2111 10.083C59.9229 9.4419 57.5439 9.11681 55.1432 9.11681C53.9076 9.11681 52.7346 9.36347 51.5979 9.65674L52.7505 7.35155L50.717 6.33423L47.9355 11.8983L53.4996 14.6797L54.5146 12.6462Z" fill="#444444"/>
<path d="M26.218 39.6878L31.7821 42.4692L34.5635 36.9052L32.53 35.8878L31.5536 37.8407C31.3888 37.1586 31.2728 36.3664 31.2728 35.2604C31.2728 33.4019 31.4865 31.5514 31.9105 29.76L29.6974 29.2383C29.2336 31.2002 28.9995 33.2269 28.9995 35.2604C28.9995 36.8006 29.1995 37.8725 29.4428 38.758L27.2353 37.6542L26.218 39.6878Z" fill="#444444"/>
<path d="M76.7401 2.29679C69.2187 2.29679 63.1 8.41553 63.1 15.9369C63.1 16.545 63.1534 17.1407 63.2318 17.7283C60.6993 16.5541 57.9463 15.9369 55.1432 15.9369C52.0185 15.9369 49.0745 16.6996 46.4602 18.0216C46.9239 16.6508 47.1865 15.189 47.1865 13.6636C47.1865 6.14217 41.0678 0.0234375 33.5464 0.0234375C26.025 0.0234375 19.9062 6.14217 19.9062 13.6636C19.9062 21.185 26.025 27.3037 33.5464 27.3037C35.0718 27.3037 36.5336 27.0411 37.9044 26.5774C36.5824 29.1917 35.8197 32.1357 35.8197 35.2604C35.8197 38.0635 36.4369 40.8165 37.6111 43.349C37.0235 43.2706 36.4279 43.2172 35.8197 43.2172C28.2983 43.2172 22.1796 49.3359 22.1796 56.8573C22.1796 64.3787 28.2983 70.4974 35.8197 70.4974C43.3411 70.4974 49.4599 64.3787 49.4599 56.8573C49.4599 55.7206 49.3053 54.6226 49.0416 53.5666C51.0103 54.2304 53.0518 54.584 55.1432 54.584C65.7985 54.584 74.4668 45.9156 74.4668 35.2604C74.4668 33.1689 74.1133 31.1275 73.4494 29.1588C74.5054 29.4225 75.6034 29.577 76.7401 29.577C84.2615 29.577 90.3802 23.4583 90.3802 15.9369C90.3802 8.41553 84.2615 2.29679 76.7401 2.29679ZM76.7401 4.57015C83.0078 4.57015 88.1069 9.66928 88.1069 15.9369C88.1069 18.2751 87.3953 20.4495 86.1802 22.2591C85.1311 19.7027 83.1021 17.7067 80.5821 16.6883C81.7063 15.6493 82.4235 14.1751 82.4235 12.5269C82.4235 9.39307 79.8739 6.8435 76.7401 6.8435C73.6063 6.8435 71.0567 9.39307 71.0567 12.5269C71.0567 14.1751 71.774 15.6493 72.8981 16.6883C70.377 17.7067 68.3492 19.7016 67.3 22.2591C66.0849 20.4495 65.3733 18.2751 65.3733 15.9369C65.3733 9.66928 70.4725 4.57015 76.7401 4.57015ZM73.3301 12.5269C73.3301 10.6468 74.8601 9.11686 76.7401 9.11686C78.6202 9.11686 80.1502 10.6468 80.1502 12.5269C80.1502 14.407 78.6202 15.9369 76.7401 15.9369C74.8601 15.9369 73.3301 14.407 73.3301 12.5269ZM66.6021 25.0303H63.8547C63.1057 22.7252 62.1134 20.7439 60.9301 19.2344C61.986 19.6186 63.0045 20.1131 63.9764 20.7041C64.5788 22.3125 65.4745 23.7743 66.6021 25.0303ZM72.1354 36.3971C71.9729 38.8467 71.3034 41.1575 70.211 43.2172H64.489C64.9778 41.1257 65.2722 38.8285 65.3438 36.3971H72.1354ZM62.144 43.2172H48.1425C47.6173 41.1473 47.2945 38.8319 47.2149 36.3971H63.0727C62.9931 38.8319 62.6692 41.1473 62.144 43.2172ZM55.1432 52.3106C52.6062 52.3106 50.3078 49.5973 48.8392 45.4905H61.4473C59.9787 49.5973 57.6803 52.3106 55.1432 52.3106ZM38.134 36.3971H44.9427C45.0143 38.8285 45.3087 41.1257 45.7975 43.2172H40.0834C38.9592 41.0984 38.2943 38.7796 38.134 36.3971ZM40.0743 27.3037H45.7964C45.3076 29.3952 45.0132 31.6924 44.9416 34.1238H38.1499C38.3136 31.6742 38.9831 29.3634 40.0743 27.3037ZM47.2138 34.1238C47.2934 31.689 47.6162 29.3736 48.1413 27.3037H62.144C62.6692 29.3736 62.992 31.689 63.0716 34.1238H47.2138ZM48.8392 25.0303C50.3078 20.9235 52.6062 18.2103 55.1432 18.2103C57.6803 18.2103 59.9787 20.9235 61.4473 25.0303H48.8392ZM49.3485 19.2458C48.1686 20.7542 47.1797 22.7308 46.4318 25.0303H41.5349C41.7441 24.753 41.9544 24.4779 42.1794 24.2142C42.8796 23.6402 43.523 22.9968 44.097 22.2966C45.6361 20.9838 47.4116 19.9494 49.3485 19.2458ZM33.5464 2.29679C39.814 2.29679 44.9132 7.39593 44.9132 13.6636C44.9132 16.0017 44.2016 18.1762 42.9865 19.9858C41.9373 17.4294 39.9084 15.4334 37.3883 14.4149C38.5125 13.376 39.2298 11.9017 39.2298 10.2535C39.2298 7.11971 36.6802 4.57015 33.5464 4.57015C30.4126 4.57015 27.863 7.11971 27.863 10.2535C27.863 11.9017 28.5802 13.376 29.7044 14.4149C27.1833 15.4334 25.1554 17.4282 24.1063 19.9858C22.8912 18.1762 22.1796 16.0017 22.1796 13.6636C22.1796 7.39593 27.2787 2.29679 33.5464 2.29679ZM30.1363 10.2535C30.1363 8.37347 31.6663 6.8435 33.5464 6.8435C35.4264 6.8435 36.9564 8.37347 36.9564 10.2535C36.9564 12.1336 35.4264 13.6636 33.5464 13.6636C31.6663 13.6636 30.1363 12.1336 30.1363 10.2535ZM33.5464 25.0303C30.5683 25.0303 27.863 23.8698 25.834 21.9897C26.6979 18.4501 29.8499 15.9369 33.5464 15.9369C37.2053 15.9369 40.3335 18.3978 41.2349 21.8795C41.0337 22.0886 40.8404 22.3057 40.6483 22.524C38.7012 24.088 36.2323 25.0303 33.5464 25.0303ZM28.1074 65.1835C28.9713 61.6439 32.1233 59.1307 35.8197 59.1307C39.5162 59.1307 42.6682 61.6439 43.5321 65.1835C41.5031 67.0635 38.7978 68.2241 35.8197 68.2241C32.8416 68.2241 30.1363 67.0635 28.1074 65.1835ZM32.4097 53.4473C32.4097 51.5672 33.9397 50.0372 35.8197 50.0372C37.6998 50.0372 39.2298 51.5672 39.2298 53.4473C39.2298 55.3273 37.6998 56.8573 35.8197 56.8573C33.9397 56.8573 32.4097 55.3273 32.4097 53.4473ZM45.2598 63.1795C44.2107 60.6231 42.1817 58.6271 39.6617 57.6087C40.7859 56.5697 41.5031 55.0955 41.5031 53.4473C41.5031 50.3135 38.9536 47.7639 35.8197 47.7639C32.6859 47.7639 30.1363 50.3135 30.1363 53.4473C30.1363 55.0955 30.8536 56.5697 31.9778 57.6087C29.4566 58.6271 27.4288 60.622 26.3796 63.1795C25.1645 61.3699 24.453 59.1955 24.453 56.8573C24.453 50.5897 29.5521 45.4905 35.8197 45.4905C42.0874 45.4905 47.1865 50.5897 47.1865 56.8573C47.1865 59.1955 46.4749 61.3699 45.2598 63.1795ZM43.3434 45.4905H46.4318C47.1797 47.7912 48.1697 49.769 49.3507 51.2774C48.8847 51.1069 48.4266 50.9045 47.9708 50.692C46.8978 48.5857 45.3019 46.7909 43.3434 45.4905ZM60.938 51.2751C62.1179 49.7667 63.1068 47.79 63.8547 45.4905H68.7516C66.7771 48.1094 64.0741 50.1361 60.938 51.2751ZM72.1286 34.1238H65.3438C65.2722 31.6924 64.9778 29.3952 64.489 27.3037H69.2153C69.6507 27.5924 70.1065 27.8504 70.5736 28.088C71.475 30.0158 71.9888 32.0402 72.1286 34.1238ZM69.0278 24.2631C69.8916 20.7235 73.0436 18.2103 76.7401 18.2103C80.4366 18.2103 83.5886 20.7235 84.4525 24.2631C82.4235 26.1431 79.7182 27.3037 76.7401 27.3037C73.762 27.3037 71.0567 26.1431 69.0278 24.2631Z" fill="#444444"/>
</svg>
