<svg width="90" height="69" viewBox="0 0 90 69" fill="none" xmlns="http://www.w3.org/2000/svg">
<path d="M81.1338 34.3137C76.46 34.3137 72.6572 30.5108 72.6572 25.837V23.7179H89.6105V25.837C89.6105 30.5108 85.8076 34.3137 81.1338 34.3137Z" fill="#00BCCD"/>
<circle cx="29.5" cy="39.4373" r="29.5" fill="#F2F5F7"/>
<path d="M32.3931 34.3137C27.7193 34.3137 23.9165 30.5108 23.9165 25.837V23.7179H40.8697V25.837C40.8697 30.5108 37.0669 34.3137 32.3931 34.3137Z" fill="#00BCCD"/>
<path d="M77.6026 39.7324L76.3396 45.6268L68.6778 35.6668C67.8269 34.5616 67.3596 33.1852 67.3596 31.7908V30.514L69.5699 28.3038C70.1951 27.6797 70.5384 26.849 70.5384 25.9653C70.5384 24.181 69.1164 22.7325 67.348 22.67C67.2865 20.9408 65.8974 19.5527 64.1693 19.4913C64.1067 17.7228 62.6572 16.3009 60.874 16.3009C60.5561 16.3009 60.2446 16.3623 59.9426 16.4524V6.76469H78.6049L72.9542 23.7179H75.1867L80.8375 6.76469H81.4298L87.0805 23.7179H89.313L83.6634 6.76469H86.432C88.1846 6.76469 89.6108 5.3385 89.6108 3.58596C89.6108 1.83342 88.1846 0.407227 86.432 0.407227H27.0957C25.3432 0.407227 23.917 1.83342 23.917 3.58596C23.917 5.3385 25.3432 6.76469 27.0957 6.76469H29.8644L24.2137 23.7179H26.4462L32.0969 6.76469H32.6903L38.341 23.7179H40.5735L34.9228 6.76469H53.5851V14.0175C52.9642 14.596 52.5701 15.4066 52.5372 16.3125C50.8091 16.374 49.42 17.762 49.3585 19.4913C47.6303 19.5527 46.2412 20.9408 46.1798 22.67C44.4113 22.7325 42.9894 24.182 42.9894 25.9653C42.9894 26.849 43.3327 27.6797 43.9578 28.3038L44.761 29.1069C45.152 29.4979 45.6426 29.7681 46.1681 29.9239V30.5903C46.1681 31.4295 45.9223 32.2433 45.4561 32.9415L37.1416 45.4128L35.9252 39.7324C34.9885 35.3648 31.067 32.1945 26.5998 32.1945H23.917V47.0286L27.6976 60.0339C28.7487 63.6068 32.0821 66.101 35.8065 66.101C38.6727 66.101 41.3195 64.6674 42.8866 62.2664L53.5851 45.8599V51.2669H51.466V55.5052H49.3468V59.7435H47.2277V66.101H66.3001V59.7435H64.1809V55.5052H62.0618V51.2669H59.9426V46.27L70.6422 62.2664C72.2083 64.6674 74.8551 66.101 77.7213 66.101C81.4457 66.101 84.7791 63.6068 85.8291 60.0339L89.5663 47.3274L89.6108 32.1945H86.9279C82.4607 32.1945 78.5392 35.3648 77.6026 39.7324ZM66.3467 35.9486L59.9002 42.3951L58.1286 39.7461L65.3062 32.5696C65.4164 33.7553 65.7629 34.9092 66.3467 35.9486ZM60.874 18.42C61.5288 18.42 62.0618 18.953 62.0618 19.6078C62.0618 19.9257 61.9389 20.2234 61.7142 20.4481L56.0148 26.1475L57.513 27.6458L63.2125 21.9463C63.4339 21.7259 63.7401 21.5988 64.0527 21.5988C64.7075 21.5988 65.2405 22.1317 65.2405 22.7866C65.2405 23.1044 65.1176 23.4022 64.893 23.6268L59.1935 29.3263L60.6917 30.8245L66.3912 25.125C66.6126 24.9046 66.9189 24.7775 67.2314 24.7775C67.8863 24.7775 68.4192 25.3105 68.4192 25.9653C68.4192 26.2832 68.2963 26.5809 68.0717 26.8055L55.7043 39.1729L48.1887 31.6573C48.2491 31.3066 48.2873 30.9517 48.2873 30.5903V29.8455C49.2197 29.4841 49.937 28.7138 50.2401 27.7538C50.5918 27.8789 50.9606 27.9562 51.3378 27.9562C53.1211 27.9562 54.5706 26.5343 54.6331 24.7658C56.4015 24.7033 57.8235 23.2538 57.8235 21.4706C57.8235 21.318 57.8001 21.1707 57.78 21.0213L60.0337 18.7676C60.2552 18.5472 60.5614 18.42 60.874 18.42ZM54.9923 17.2693C54.7676 17.0447 54.6447 16.747 54.6447 16.4291C54.6447 15.7743 55.1777 15.2413 55.8325 15.2413C56.1451 15.2413 56.4513 15.3685 56.6728 15.5888L57.4759 16.392C57.7005 16.6166 57.8235 16.9144 57.8235 17.2322C57.8235 17.8871 57.2905 18.42 56.6357 18.42C56.3231 18.42 56.0169 18.2929 55.7954 18.0725L54.9923 17.2693ZM27.0957 4.64553C26.5108 4.64553 26.0361 4.16978 26.0361 3.58596C26.0361 3.00213 26.5108 2.52638 27.0957 2.52638H86.432C87.0169 2.52638 87.4916 3.00213 87.4916 3.58596C87.4916 4.16978 87.0169 4.64553 86.432 4.64553H27.0957ZM55.7043 6.76469H57.8235V13.8066C57.2523 13.3743 56.553 13.1222 55.8325 13.1222C55.7891 13.1222 55.7477 13.1338 55.7043 13.1349V6.76469ZM52.6538 18.42C52.9664 18.42 53.2726 18.5472 53.494 18.7676L55.3568 20.6303C55.5814 20.8549 55.7043 21.1527 55.7043 21.4706C55.7043 22.1254 55.1713 22.6583 54.5165 22.6583C54.2039 22.6583 53.8977 22.5312 53.6763 22.3108L51.8135 20.4481C51.5889 20.2234 51.466 19.9257 51.466 19.6078C51.466 18.953 51.999 18.42 52.6538 18.42ZM49.475 21.5988C49.7876 21.5988 50.0938 21.7259 50.3153 21.9463L52.178 23.809C52.4027 24.0337 52.5256 24.3314 52.5256 24.6493C52.5256 25.3041 51.9926 25.8371 51.3378 25.8371C51.0252 25.8371 50.719 25.7099 50.4975 25.4895L48.6348 23.6268C48.4102 23.4022 48.2873 23.1044 48.2873 22.7866C48.2873 22.1317 48.8202 21.5988 49.475 21.5988ZM45.1085 25.9653C45.1085 25.3105 45.6415 24.7775 46.2963 24.7775C46.6089 24.7775 46.9151 24.9046 47.1366 25.125L47.9397 25.9282C48.1644 26.1528 48.2873 26.4506 48.2873 26.7684C48.2873 27.4233 47.7543 27.9562 47.0995 27.9562C46.7869 27.9562 46.4807 27.8291 46.2592 27.6087L45.4561 26.8055C45.2314 26.5809 45.1085 26.2832 45.1085 25.9653ZM41.1107 61.1083C39.9367 62.9074 37.9543 63.9818 35.8065 63.9818C33.0156 63.9818 30.5182 62.1128 29.7309 59.4352L26.0361 46.876V34.3137H26.5998C30.0742 34.3137 33.1247 36.7793 33.8537 40.1763L35.5723 48.1994V49.5663C35.5723 52.3138 36.9371 54.8631 39.2226 56.3879L40.3977 54.6247C38.7034 53.4942 37.6915 51.6028 37.6915 49.5663V48.4092L47.2192 34.1177C47.2785 34.0287 47.3209 33.9322 47.376 33.8411L54.3629 40.829L41.1107 61.1083ZM64.1809 63.9818H49.3468V61.8627H64.1809V63.9818ZM51.466 59.7435V57.6244H62.0618V59.7435H51.466ZM53.5851 55.5052V53.3861H59.9426V55.5052H53.5851ZM57.8235 51.2669H55.7043V42.6102L56.5308 41.3419L56.5996 41.273L57.8235 43.1018V51.2669ZM87.4916 46.876L83.7979 59.4363C83.0107 62.1128 80.5122 63.9818 77.7213 63.9818C75.5735 63.9818 73.591 62.9074 72.4096 61.0977L61.1007 44.19L67.5779 37.7139L75.8363 48.4484V49.5652C75.8363 51.6017 74.8244 53.4931 73.129 54.6226L74.3041 56.3857C76.5907 54.8631 77.9554 52.3127 77.9554 49.5663V48.1994L79.6741 40.1774C80.403 36.7793 83.4525 34.3137 86.9279 34.3137H87.4916V46.876Z" fill="#444444"/>
</svg>
