<svg width="89" height="74" viewBox="0 0 89 74" fill="none" xmlns="http://www.w3.org/2000/svg">
<circle cx="30.082" cy="43.7607" r="29.5" fill="#F2F5F7"/>
<path d="M51.649 26.1358C51.649 24.908 52.6435 23.9135 53.8713 23.9135C55.0791 23.9135 56.2081 24.239 57.1848 24.8002L57.2048 24.7824V2.80142C57.2048 1.57581 56.2081 0.579102 54.9824 0.579102H21.6476C20.422 0.579102 19.4253 1.57581 19.4253 2.80142V27.247C19.4253 28.4726 20.422 29.4693 21.6476 29.4693H38.7395L41.3863 34.7629C41.8096 35.6107 42.6619 36.1362 43.6086 36.1362C44.9787 36.1362 46.0932 35.0218 46.0932 33.6517V29.4693H51.649V26.1358Z" fill="#00BCCD"/>
<path d="M88.3173 18.3577C88.3173 15.9065 86.3238 13.913 83.8726 13.913C83.0593 13.913 82.307 14.1486 81.6503 14.5308V9.46839C81.6503 7.01717 79.6569 5.02375 77.2057 5.02375C76.3923 5.02375 75.64 5.25931 74.9833 5.64155V5.02375C74.9833 2.57252 72.9899 0.579102 70.5387 0.579102C68.0875 0.579102 66.0941 2.57252 66.0941 5.02375V5.64155C65.4374 5.25931 64.6851 5.02375 63.8717 5.02375C61.4205 5.02375 59.4271 7.01717 59.4271 9.46839V25.148C58.0137 23.7024 56.0469 22.8023 53.8713 22.8023C52.0334 22.8023 50.5378 24.2979 50.5378 26.1358V33.6706C50.5378 38.8675 51.9512 43.9377 54.5724 48.359H37.2039V45.0255C38.4295 45.0255 39.4262 44.0288 39.4262 42.8032V38.3586C39.4262 37.133 38.4295 36.1362 37.2039 36.1362H21.6476C20.422 36.1362 19.4253 37.133 19.4253 38.3586V42.8032C19.4253 44.0288 20.422 45.0255 21.6476 45.0255V60.5818C20.422 60.5818 19.4253 61.5785 19.4253 62.8041V67.2488C19.4253 68.4744 20.422 69.4711 21.6476 69.4711H37.2039C38.4295 69.4711 39.4262 68.4744 39.4262 67.2488V62.8041C39.4262 61.5785 38.4295 60.5818 37.2039 60.5818V57.2483H57.2048V69.4711H83.8726V52.0059C86.775 47.529 88.3173 42.3565 88.3173 37.0141V18.3577ZM21.6476 38.3586H37.2039L37.205 42.8032H21.6476V38.3586ZM37.205 67.2488H21.6476V62.8041H37.2039L37.205 67.2488ZM23.8699 60.5818V45.0255H34.9815V60.5818H23.8699ZM37.2039 55.026V50.5813H56.0369C56.407 51.0914 56.7992 51.5858 57.2048 52.0725V55.026H37.2039ZM59.4271 67.2488V52.8026L81.6503 52.8037V67.2488H59.4271ZM86.0949 37.013C86.0949 41.8387 84.736 46.5167 82.1592 50.5813L58.8337 50.5802C54.9135 45.8267 52.7601 39.842 52.7601 33.6706V26.1358C52.7601 25.5224 53.259 25.0246 53.8713 25.0246C56.9347 25.0246 59.4271 27.517 59.4271 30.5804V37.2474H61.6494V9.46839C61.6494 8.24278 62.6461 7.24607 63.8717 7.24607C65.0973 7.24607 66.0941 8.24278 66.0941 9.46839V30.9182H68.3164V5.02375C68.3164 3.79813 69.3131 2.80142 70.5387 2.80142C71.7643 2.80142 72.761 3.79813 72.761 5.02375V30.5804H74.9833V9.46839C74.9833 8.24278 75.98 7.24607 77.2057 7.24607C78.4313 7.24607 79.428 8.24278 79.428 9.46839V30.5804H81.6503V18.3577C81.6503 17.1321 82.647 16.1354 83.8726 16.1354C85.0982 16.1354 86.0949 17.1321 86.0949 18.3577V37.013Z" fill="#444444"/>
<path d="M26.092 20.5801H32.7589C33.9845 20.5801 34.9812 19.5833 34.9812 18.3577V14.6876L31.5022 9.46845H37.2036V22.8024H32.7589V25.0247H43.8705V22.8024H39.4259V9.46845H45.1272L41.6482 14.6876V18.3577C41.6482 19.5833 42.6449 20.5801 43.8705 20.5801H50.5375C51.7631 20.5801 52.7598 19.5833 52.7598 18.3577V14.6876L47.7985 7.24613H39.4259V5.0238H37.2036V7.24613H28.831L23.8696 14.6876V18.3577C23.8696 19.5833 24.8663 20.5801 26.092 20.5801ZM43.8705 18.3577V16.1354H50.5375V18.3577H43.8705ZM49.573 13.9131H44.8361L47.204 10.3607L49.573 13.9131ZM26.092 18.3577V16.1354H32.7589V18.3577H26.092ZM29.4254 10.3607L31.7944 13.9131H27.0564L29.4254 10.3607Z" fill="#444444"/>
</svg>
