<svg width="96" height="78" viewBox="0 0 96 78" fill="none" xmlns="http://www.w3.org/2000/svg">
<circle cx="29.5" cy="47.7612" r="29.5" fill="#F2F5F7"/>
<path d="M50.9983 66.1822C39.4589 66.1822 30.0713 56.7946 30.0713 45.2552C30.0713 33.7157 39.4589 24.3281 50.9983 24.3281C55.5923 24.3281 59.9676 25.8092 63.648 28.6108L50.9983 41.5622L49.7673 46.4862L54.6913 45.2552L67.5826 32.5226C70.4233 36.2192 71.9254 40.6215 71.9254 45.2552C71.9254 56.7946 62.5378 66.1822 50.9983 66.1822Z" fill="#00BCCD"/>
<path d="M81.9692 14.4555L81.6476 14.1351L80.4353 0.790039H77.5633L71.1054 7.35859C69.2763 9.22012 68.1583 11.6785 67.96 14.2806L67.113 25.3548L77.3145 15.0956C77.8044 14.6058 78.468 14.3311 79.161 14.3311C80.6036 14.3311 81.7733 15.4996 81.7733 16.9421C81.7733 17.6352 81.4974 18.2988 81.0087 18.7886L70.8926 28.963L81.7919 28.261C84.5148 28.0849 87.0675 26.917 88.9808 24.9719L95.3143 18.5278V15.6691L81.9692 14.4555Z" fill="#00BCCD"/>
<path d="M75.5269 31.1197L73.3949 32.3507C74.8892 34.9408 75.9134 37.7448 76.4394 40.6882L76.577 41.4612L80.5423 42.5101V48.0015L76.5758 49.0504L76.4382 49.8234C75.7806 53.5116 74.3602 56.9395 72.2156 60.0146L71.7666 60.6584L73.8295 64.2053L69.9471 68.0865L66.402 66.0236L65.7577 66.4726C62.6814 68.6172 59.2522 70.0375 55.5652 70.6963L54.7922 70.834L53.7434 74.7993H48.2531L47.2043 70.834L46.4313 70.6963C42.7443 70.0387 39.3145 68.6184 36.2382 66.4726L35.5945 66.0236L32.0493 68.0865L28.167 64.2053L30.2299 60.6584L29.7809 60.0146C27.6363 56.9395 26.2159 53.5116 25.5583 49.8234L25.4207 49.0504L21.4542 48.0003V42.5101L25.4207 41.4612L25.5583 40.6882C26.2159 37.0012 27.6363 33.5715 29.7809 30.4952L30.2299 29.8514L28.167 26.3063L32.0493 22.424L35.5945 24.4869L36.2382 24.0372C39.3157 21.8932 42.7455 20.4723 46.4313 19.8153L47.2043 19.677L48.2531 15.7112H53.7434L54.7922 19.677L55.5652 19.8153C58.4125 20.3238 61.1354 21.2999 63.6563 22.7179L64.8633 20.572C62.3309 19.1481 59.6129 18.1299 56.7728 17.5414L55.6392 13.2491H46.3573L45.2237 17.5402C41.7351 18.2615 38.4652 19.6169 35.4851 21.574L31.6478 19.3422L25.0859 25.9048L27.3177 29.7421C25.3588 32.7222 24.0046 35.992 23.2833 39.4795L18.9922 40.6143V49.8949L23.2833 51.0297C24.0046 54.5196 25.36 57.7876 27.3177 60.7672L25.0859 64.6062L31.649 71.1688L35.4863 68.937C38.4664 70.8959 41.7363 72.2495 45.2249 72.9714L46.3573 77.2613H55.6392L56.7728 72.9714C60.2614 72.2495 63.5313 70.8947 66.5114 68.937L70.3481 71.1688L76.9118 64.6062L74.68 60.7684C76.6389 57.7894 77.9925 54.5208 78.7144 51.0309L83.0043 49.8961V40.6143L78.7132 39.4795C78.1037 36.5372 77.0326 33.7278 75.5269 31.1197Z" fill="#444444"/>
<path d="M50.9981 29.2521C42.1744 29.2521 34.9951 36.4314 34.9951 45.2552C34.9951 54.0789 42.1744 61.2582 50.9981 61.2582C59.8219 61.2582 67.0012 54.0789 67.0012 45.2552C67.0012 42.3105 66.1945 39.4668 64.6708 36.9645L81.879 19.659C82.6051 18.9323 83.0042 17.9675 83.0042 16.9421C83.0042 14.8233 81.2809 13.1 79.1621 13.1C78.1355 13.1 77.169 13.5004 76.4441 14.2265L59.2263 31.5416C56.7396 30.0438 53.9182 29.2521 50.9981 29.2521ZM64.5392 45.2552C64.5392 52.7211 58.4641 58.7962 50.9981 58.7962C43.5322 58.7962 37.4571 52.7211 37.4571 45.2552C37.4571 37.7892 43.5322 31.7141 50.9981 31.7141C53.263 31.7141 55.4557 32.2828 57.4266 33.3527L53.7162 37.0835C52.8386 36.7896 51.9274 36.6381 50.9981 36.6381C46.2466 36.6381 42.3811 40.5049 42.3811 45.2552C42.3811 50.0055 46.2466 53.8722 50.9981 53.8722C55.7496 53.8722 59.6152 50.0055 59.6152 45.2552C59.6152 44.3145 59.4601 43.3936 59.1583 42.5076L62.87 38.775C63.9603 40.7609 64.5392 42.9717 64.5392 45.2552ZM57.1532 45.2552C57.1532 48.6488 54.3918 51.4102 50.9981 51.4102C47.6045 51.4102 44.8431 48.6488 44.8431 45.2552C44.8431 41.8609 47.6045 39.1002 50.9981 39.1002C51.2157 39.1002 51.4279 39.1458 51.6419 39.1687L49.8856 40.9352L48.0745 48.1788L55.3211 46.3666L57.0816 44.5964C57.1063 44.8158 57.1532 45.0322 57.1532 45.2552ZM54.0594 44.145L51.4586 44.7947L52.1095 42.1897L55.9095 38.3674L57.8624 40.3197L54.0594 44.145ZM78.186 15.966C78.4457 15.7063 78.7931 15.562 79.1609 15.562C79.9231 15.562 80.5422 16.1811 80.5422 16.9421C80.5422 17.3052 80.3943 17.661 80.1359 17.9207L59.5989 38.5742L57.6466 36.6219L78.186 15.966Z" fill="#444444"/>
<path d="M49.7673 69.8752H52.2293V72.3372H49.7673V69.8752Z" fill="#444444"/>
<path d="M67.5364 63.5351L69.2771 61.7944L71.0178 63.5351L69.2771 65.2764L67.5364 63.5351Z" fill="#444444"/>
<path d="M75.6182 44.0242H78.0802V46.4862H75.6182V44.0242Z" fill="#444444"/>
<path d="M49.7673 18.1732H52.2293V20.6352H49.7673V18.1732Z" fill="#444444"/>
<path d="M30.9785 26.9759L32.7192 25.2346L34.4599 26.9759L32.7192 28.7166L30.9785 26.9759Z" fill="#444444"/>
<path d="M23.9165 44.0242H26.3785V46.4862H23.9165V44.0242Z" fill="#444444"/>
<path d="M30.9775 63.5351L32.7189 61.7938L34.4596 63.5351L32.7189 65.2758L30.9775 63.5351Z" fill="#444444"/>
</svg>
