<svg width="30" height="61" viewBox="0 0 30 61" fill="none" xmlns="http://www.w3.org/2000/svg">
<path d="M13.0664 32.9868C13.0664 31.8931 13.1992 31.022 13.4648 30.3735C13.7305 29.7251 14.2148 29.0884 14.918 28.4634C15.6289 27.8306 16.1016 27.3188 16.3359 26.9282C16.5703 26.5298 16.6875 26.1118 16.6875 25.6743C16.6875 24.354 16.0781 23.6938 14.8594 23.6938C14.2812 23.6938 13.8164 23.8735 13.4648 24.2329C13.1211 24.5845 12.9414 25.0728 12.9258 25.6978H9.52734C9.54297 24.2056 10.0234 23.0376 10.9688 22.1938C11.9219 21.3501 13.2188 20.9282 14.8594 20.9282C16.5156 20.9282 17.8008 21.3306 18.7148 22.1353C19.6289 22.9321 20.0859 24.061 20.0859 25.522C20.0859 26.186 19.9375 26.8149 19.6406 27.4087C19.3438 27.9946 18.8242 28.647 18.082 29.3657L17.1328 30.2681C16.5391 30.8384 16.1992 31.5063 16.1133 32.272L16.0664 32.9868H13.0664ZM12.7266 36.5845C12.7266 36.061 12.9023 35.6313 13.2539 35.2954C13.6133 34.9517 14.0703 34.7798 14.625 34.7798C15.1797 34.7798 15.6328 34.9517 15.9844 35.2954C16.3438 35.6313 16.5234 36.061 16.5234 36.5845C16.5234 37.1001 16.3477 37.5259 15.9961 37.8618C15.6523 38.1978 15.1953 38.3657 14.625 38.3657C14.0547 38.3657 13.5938 38.1978 13.2422 37.8618C12.8984 37.5259 12.7266 37.1001 12.7266 36.5845Z" fill="#00BCCD"/>
<circle cx="15" cy="29.2251" r="14" stroke="#00BCCD" stroke-width="2"/>
</svg>
