<svg width="30" height="61" viewBox="0 0 30 61" fill="none" xmlns="http://www.w3.org/2000/svg">
<path d="M16.7461 32.9868H13.9336L13.5352 21.1626H17.1445L16.7461 32.9868ZM15.3398 34.8384C15.9102 34.8384 16.3672 35.0063 16.7109 35.3423C17.0625 35.6782 17.2383 36.1079 17.2383 36.6313C17.2383 37.147 17.0625 37.5728 16.7109 37.9087C16.3672 38.2446 15.9102 38.4126 15.3398 38.4126C14.7773 38.4126 14.3203 38.2446 13.9688 37.9087C13.625 37.5728 13.4531 37.147 13.4531 36.6313C13.4531 36.1157 13.625 35.6899 13.9688 35.354C14.3203 35.0103 14.7773 34.8384 15.3398 34.8384Z" fill="#00BCCD"/>
<circle cx="15" cy="29.2251" r="14" stroke="#00BCCD" stroke-width="2"/>
</svg>
