<svg width="31" height="31" viewBox="0 0 31 31" fill="none" xmlns="http://www.w3.org/2000/svg">
<rect x="1.2" y="1.04863" width="28.6" height="28.6" stroke="#D8D8D8" stroke-width="1.4"/>
<path d="M15.5023 7.49487H15.4983C11.1679 7.49487 7.64648 11.0173 7.64648 15.3487C7.64648 17.0667 8.20018 18.6591 9.14165 19.952L8.16287 22.8697L11.1817 21.9047C12.4236 22.7273 13.905 23.2025 15.5023 23.2025C19.8327 23.2025 23.3541 19.6791 23.3541 15.3487C23.3541 11.0183 19.8327 7.49487 15.5023 7.49487Z" fill="#D8D8D8"/>
<path d="M20.0727 18.5856C19.8832 19.1206 19.1312 19.5644 18.5314 19.694C18.121 19.7813 17.585 19.851 15.7806 19.103C13.4726 18.1468 11.9862 15.8014 11.8704 15.6492C11.7594 15.4971 10.9377 14.4074 10.9377 13.2803C10.9377 12.1533 11.5101 11.6045 11.7408 11.3689C11.9303 11.1755 12.2434 11.0872 12.5438 11.0872C12.641 11.0872 12.7284 11.0921 12.807 11.096C13.0377 11.1058 13.1535 11.1196 13.3057 11.4838C13.4951 11.9403 13.9566 13.0673 14.0115 13.1831C14.0675 13.299 14.1234 13.4561 14.0449 13.6082C13.9713 13.7653 13.9065 13.835 13.7906 13.9685C13.6748 14.102 13.5648 14.2041 13.449 14.3475C13.343 14.4722 13.2232 14.6057 13.3567 14.8364C13.4902 15.0622 13.9516 15.8152 14.631 16.4199C15.5077 17.2004 16.2185 17.4497 16.4727 17.5558C16.6622 17.6343 16.888 17.6156 17.0264 17.4684C17.2021 17.2789 17.4191 16.9648 17.64 16.6555C17.7971 16.4336 17.9954 16.4062 18.2035 16.4847C18.4156 16.5583 19.5377 17.113 19.7684 17.2279C19.9991 17.3437 20.1512 17.3987 20.2072 17.4959C20.2622 17.5931 20.2622 18.0496 20.0727 18.5856Z" fill="#222222"/>
</svg>
