<svg width="31" height="31" viewBox="0 0 31 31" fill="none" xmlns="http://www.w3.org/2000/svg">
<rect x="1.2" y="1.04863" width="28.6" height="28.6" stroke="#D8D8D8" stroke-width="1.4"/>
<path d="M18.3958 22.3431H12.6987C11.5855 22.3419 10.5182 21.9224 9.73106 21.1766C8.94391 20.4308 8.50118 19.4196 8.5 18.3649V12.9673C8.50126 11.9126 8.94402 10.9015 9.73116 10.1557C10.5183 9.40994 11.5855 8.99045 12.6987 8.98926H18.3958C19.509 8.99037 20.5763 9.40983 21.3635 10.1556C22.1507 10.9014 22.5935 11.9125 22.5948 12.9673V18.3649C22.5936 19.4196 22.1508 20.4309 21.3636 21.1767C20.5764 21.9225 19.5091 22.342 18.3958 22.3431ZM12.6987 10.3324C11.9614 10.3332 11.2545 10.6111 10.7332 11.105C10.2118 11.599 9.91853 12.2687 9.91766 12.9673V18.3649C9.91853 19.0634 10.2118 19.7331 10.7332 20.227C11.2546 20.7209 11.9614 20.9987 12.6987 20.9994H18.3958C19.133 20.9987 19.8399 20.7209 20.3612 20.227C20.8825 19.733 21.1757 19.0634 21.1765 18.3649V12.9673C21.1757 12.2687 20.8825 11.599 20.3612 11.1051C19.8399 10.6111 19.1331 10.3332 18.3958 10.3324H12.6987ZM15.5465 19.1195C14.8256 19.1193 14.1209 18.9165 13.5216 18.5369C12.9223 18.1573 12.4553 17.6178 12.1796 16.9867C11.9039 16.3556 11.8319 15.6612 11.9727 14.9914C12.1135 14.3215 12.4608 13.7063 12.9707 13.2234C13.4805 12.7405 14.1301 12.4117 14.8372 12.2786C15.5442 12.1455 16.2771 12.214 16.9431 12.4754C17.6091 12.7369 18.1783 13.1796 18.5788 13.7475C18.9792 14.3155 19.1929 14.9832 19.1929 15.6662C19.1919 16.5819 18.8075 17.4599 18.1241 18.1073C17.4406 18.7548 16.5139 19.1189 15.5474 19.1198L15.5465 19.1195ZM15.5465 13.5547C15.1059 13.5547 14.6753 13.6784 14.309 13.9103C13.9427 14.1422 13.6571 14.4718 13.4886 14.8575C13.32 15.2431 13.2758 15.6674 13.3618 16.0768C13.4477 16.4862 13.6599 16.8622 13.9714 17.1574C14.2829 17.4525 14.6798 17.6535 15.1119 17.7349C15.544 17.8164 15.9919 17.7746 16.3989 17.6148C16.8059 17.4551 17.1538 17.1846 17.3986 16.8376C17.6434 16.4905 17.774 16.0825 17.774 15.6651C17.7731 15.1059 17.5382 14.5698 17.1208 14.1745C16.7034 13.7791 16.1376 13.5566 15.5474 13.5558L15.5465 13.5547ZM19.1988 13.0648C19.026 13.0647 18.8571 13.0161 18.7135 12.9251C18.5698 12.8341 18.4579 12.7048 18.3918 12.5536C18.3258 12.4023 18.3085 12.2359 18.3423 12.0753C18.3761 11.9148 18.4593 11.7673 18.5816 11.6516C18.7038 11.5359 18.8595 11.4571 19.0289 11.4252C19.1984 11.3934 19.3741 11.4098 19.5337 11.4725C19.6933 11.5352 19.8297 11.6413 19.9256 11.7775C20.0216 11.9136 20.0728 12.0737 20.0727 12.2374C20.0727 12.4569 19.9808 12.6674 19.8171 12.8227C19.6534 12.9781 19.4314 13.0655 19.1997 13.0659L19.1988 13.0648Z" fill="#D8D8D8"/>
</svg>
