<svg width="31" height="31" viewBox="0 0 31 31" fill="none" xmlns="http://www.w3.org/2000/svg">
<rect x="1.2" y="1.04863" width="28.6" height="28.6" stroke="#D8D8D8" stroke-width="1.4"/>
<path d="M22.9332 21.9498V21.9492H22.937V16.4943C22.937 13.8257 22.3625 11.77 19.2427 11.77C17.7429 11.77 16.7365 12.593 16.3256 13.3733H16.2822V12.0192H13.3242V21.9492H16.4043V17.0322C16.4043 15.7376 16.6497 14.4857 18.253 14.4857C19.8327 14.4857 19.8562 15.9632 19.8562 17.1152V21.9498H22.9332Z" fill="#D8D8D8"/>
<path d="M8.30859 12.02H11.3924V21.9501H8.30859V12.02Z" fill="#D8D8D8"/>
<path d="M9.84956 7.07666C8.86356 7.07666 8.06348 7.87674 8.06348 8.86274C8.06348 9.84874 8.86356 10.6656 9.84956 10.6656C10.8356 10.6656 11.6356 9.84874 11.6356 8.86274C11.635 7.87674 10.8349 7.07666 9.84956 7.07666V7.07666Z" fill="#D8D8D8"/>
</svg>
